<svg xmlns="http://www.w3.org/2000/svg" xmlns:xlink="http://www.w3.org/1999/xlink" width="150" zoomAndPan="magnify" viewBox="0 0 112.5 112.499997" height="150" preserveAspectRatio="xMidYMid meet" version="1.0"><defs><g/><clipPath id="9f42fbf04e"><path d="M 3.847656 4.695312 L 108.382812 4.695312 L 108.382812 106.992188 L 3.847656 106.992188 Z M 3.847656 4.695312 " clip-rule="nonzero"/></clipPath></defs><path fill="#c6ea94" d="M 56.113281 6.1875 C 84.164062 6.1875 106.902344 28.804688 106.902344 56.707031 C 106.902344 79.867188 91.230469 99.386719 69.863281 105.347656 L 65.054688 88.34375 L 60.363281 71.742188 C 66.96875 69.898438 71.8125 63.867188 71.8125 56.707031 C 71.8125 48.082031 64.785156 41.089844 56.113281 41.089844 C 47.445312 41.089844 40.417969 48.082031 40.417969 56.707031 C 40.417969 63.867188 45.261719 69.898438 51.867188 71.742188 L 47.175781 88.34375 L 42.367188 105.347656 C 21 99.386719 5.328125 79.867188 5.328125 56.707031 C 5.328125 28.804688 28.066406 6.1875 56.113281 6.1875 Z M 56.113281 6.1875 " fill-opacity="1" fill-rule="evenodd"/><g clip-path="url(#9f42fbf04e)"><path fill="#000000" d="M 62.171875 72.699219 L 70.882812 103.511719 C 91.289062 97.148438 105.421875 78.109375 105.421875 56.707031 C 105.421875 29.664062 83.304688 7.660156 56.113281 7.660156 C 28.925781 7.660156 6.808594 29.664062 6.808594 56.707031 C 6.808594 78.109375 20.9375 97.148438 41.347656 103.511719 L 50.054688 72.699219 C 43.4375 70.21875 38.933594 63.839844 38.933594 56.707031 C 38.933594 47.285156 46.640625 39.617188 56.113281 39.617188 C 65.589844 39.617188 73.292969 47.285156 73.292969 56.707031 C 73.296875 63.839844 68.789062 70.21875 62.171875 72.699219 Z M 69.863281 106.824219 C 69.214844 106.824219 68.617188 106.398438 68.433594 105.746094 L 58.9375 72.140625 C 58.832031 71.765625 58.882812 71.363281 59.074219 71.019531 C 59.265625 70.679688 59.585938 70.429688 59.964844 70.324219 C 66.070312 68.621094 70.332031 63.019531 70.332031 56.707031 C 70.332031 48.910156 63.957031 42.5625 56.113281 42.5625 C 48.273438 42.5625 41.898438 48.910156 41.898438 56.707031 C 41.898438 63.019531 46.160156 68.621094 52.265625 70.324219 C 52.644531 70.429688 52.964844 70.679688 53.15625 71.019531 C 53.347656 71.363281 53.398438 71.765625 53.292969 72.140625 L 43.792969 105.746094 C 43.574219 106.53125 42.757812 106.988281 41.96875 106.769531 C 31.207031 103.765625 21.511719 97.234375 14.660156 88.375 C 7.585938 79.226562 3.847656 68.277344 3.847656 56.707031 C 3.847656 42.820312 9.285156 29.761719 19.15625 19.945312 C 29.027344 10.121094 42.152344 4.714844 56.113281 4.714844 C 70.078125 4.714844 83.203125 10.121094 93.074219 19.945312 C 102.945312 29.761719 108.382812 42.820312 108.382812 56.707031 C 108.382812 68.277344 104.644531 79.226562 97.570312 88.375 C 90.71875 97.234375 81.019531 103.765625 70.261719 106.769531 C 70.128906 106.804688 69.992188 106.824219 69.863281 106.824219 Z M 69.863281 106.824219 " fill-opacity="1" fill-rule="evenodd"/></g><g fill="#1ad7fc" fill-opacity="1"><g transform="translate(54.72296, 59.256486)"><g><path d="M 0.109375 0 C 0.0976562 0 0.0859375 -0.00390625 0.078125 -0.015625 C 0.0664062 -0.0234375 0.0625 -0.0351562 0.0625 -0.046875 C 0.0625 -0.0546875 0.0664062 -0.0664062 0.078125 -0.078125 C 0.0859375 -0.0859375 0.0976562 -0.09375 0.109375 -0.09375 C 0.128906 -0.09375 0.140625 -0.0859375 0.140625 -0.078125 C 0.148438 -0.0664062 0.15625 -0.0546875 0.15625 -0.046875 C 0.15625 -0.0351562 0.148438 -0.0234375 0.140625 -0.015625 C 0.140625 -0.00390625 0.128906 0 0.109375 0 Z M 0.109375 0 "/></g></g></g></svg>