<svg xmlns="http://www.w3.org/2000/svg" xmlns:xlink="http://www.w3.org/1999/xlink" width="150" zoomAndPan="magnify" viewBox="0 0 112.5 112.499997" height="150" preserveAspectRatio="xMidYMid meet" version="1.0"><defs><g/><clipPath id="c0293cb3ed"><path d="M 15.574219 17.265625 L 93.976562 17.265625 L 93.976562 94.917969 L 15.574219 94.917969 Z M 15.574219 17.265625 " clip-rule="nonzero"/></clipPath></defs><path fill="#c1ff72" d="M 54.949219 19.03125 C 75.695312 19.03125 92.570312 35.90625 92.570312 56.652344 C 92.570312 73.023438 81.839844 87.660156 66.21875 92.558594 L 65.746094 92.707031 L 58.933594 68.472656 L 59.34375 68.320312 C 64.175781 66.496094 67.414062 61.820312 67.414062 56.652344 C 67.414062 49.78125 61.824219 44.1875 54.949219 44.1875 C 48.078125 44.1875 42.484375 49.78125 42.484375 56.652344 C 42.484375 61.820312 45.722656 66.496094 50.554688 68.320312 L 50.964844 68.472656 L 44.152344 92.707031 L 43.683594 92.558594 C 28.0625 87.660156 17.328125 73.023438 17.328125 56.652344 C 17.328125 35.90625 34.207031 19.03125 54.949219 19.03125 Z M 54.949219 19.03125 " fill-opacity="1" fill-rule="evenodd"/><g clip-path="url(#c0293cb3ed)"><path fill="#7ed957" d="M 59.515625 68.765625 L 66.074219 92.101562 C 81.449219 87.28125 92.09375 72.863281 92.09375 56.652344 C 92.09375 36.171875 75.433594 19.507812 54.949219 19.507812 C 34.46875 19.507812 17.804688 36.171875 17.804688 56.652344 C 17.804688 72.863281 28.449219 87.28125 43.824219 92.101562 L 50.386719 68.765625 C 45.402344 66.886719 42.007812 62.054688 42.007812 56.652344 C 42.007812 49.515625 47.8125 43.710938 54.949219 43.710938 C 62.085938 43.710938 67.890625 49.515625 67.890625 56.652344 C 67.894531 62.054688 64.5 66.886719 59.515625 68.765625 Z M 65.304688 94.609375 C 64.816406 94.609375 64.371094 94.289062 64.230469 93.792969 L 57.078125 68.34375 C 56.996094 68.058594 57.035156 67.753906 57.179688 67.496094 C 57.324219 67.234375 57.566406 67.046875 57.851562 66.964844 C 62.449219 65.675781 65.660156 61.433594 65.660156 56.652344 C 65.660156 50.746094 60.855469 45.941406 54.949219 45.941406 C 49.042969 45.941406 44.238281 50.746094 44.238281 56.652344 C 44.238281 61.433594 47.453125 65.675781 52.050781 66.964844 C 52.335938 67.046875 52.578125 67.234375 52.722656 67.496094 C 52.867188 67.753906 52.902344 68.058594 52.824219 68.34375 L 45.667969 93.792969 C 45.5 94.386719 44.886719 94.734375 44.292969 94.566406 C 36.1875 92.292969 28.878906 87.347656 23.71875 80.636719 C 18.390625 73.710938 15.574219 65.414062 15.574219 56.652344 C 15.574219 46.136719 19.667969 36.246094 27.105469 28.808594 C 34.546875 21.371094 44.433594 17.277344 54.949219 17.277344 C 65.46875 17.277344 75.355469 21.371094 82.792969 28.808594 C 90.230469 36.246094 94.324219 46.136719 94.324219 56.652344 C 94.324219 65.414062 91.507812 73.710938 86.179688 80.636719 C 81.019531 87.347656 73.714844 92.292969 65.609375 94.566406 C 65.507812 94.59375 65.40625 94.609375 65.304688 94.609375 Z M 65.304688 94.609375 " fill-opacity="1" fill-rule="evenodd"/></g><g fill="#1ad7fc" fill-opacity="1"><g transform="translate(54.72296, 59.256486)"><g><path d="M 0.109375 0 C 0.0976562 0 0.0859375 -0.00390625 0.078125 -0.015625 C 0.0664062 -0.0234375 0.0625 -0.0351562 0.0625 -0.046875 C 0.0625 -0.0546875 0.0664062 -0.0664062 0.078125 -0.078125 C 0.0859375 -0.0859375 0.0976562 -0.09375 0.109375 -0.09375 C 0.128906 -0.09375 0.140625 -0.0859375 0.140625 -0.078125 C 0.148438 -0.0664062 0.15625 -0.0546875 0.15625 -0.046875 C 0.15625 -0.0351562 0.148438 -0.0234375 0.140625 -0.015625 C 0.140625 -0.00390625 0.128906 0 0.109375 0 Z M 0.109375 0 "/></g></g></g></svg>